<?xml version="1.0" standalone="no"?>
<!DOCTYPE svg PUBLIC "-//W3C//DTD SVG 20010904//EN"
 "http://www.w3.org/TR/2001/REC-SVG-20010904/DTD/svg10.dtd">
<svg version="1.0" xmlns="http://www.w3.org/2000/svg"
 width="1080.000000pt" height="1080.000000pt" viewBox="0 0 1080.000000 1080.000000"
 preserveAspectRatio="xMidYMid meet">
<metadata>
Created by potrace 1.14, written by Peter Selinger 2001-2017
</metadata>
<g transform="translate(0.000000,1080.000000) scale(0.100000,-0.100000)"
fill="#000000" stroke="none">
<path d="M460 5400 l0 -4940 4940 0 4940 0 0 4940 0 4940 -4940 0 -4940 0 0
-4940z m3500 485 c330 -51 645 -158 898 -306 155 -90 197 -123 222 -175 44
-91 4 -220 -85 -272 -34 -19 -50 -22 -103 -19 -53 4 -76 12 -145 53 -266 156
-485 244 -754 301 -122 26 -142 27 -403 27 -262 0 -281 -1 -405 -27 -609 -129
-1080 -494 -1345 -1042 -94 -194 -153 -382 -187 -599 -25 -157 -25 -594 0
-751 126 -797 643 -1400 1375 -1605 354 -100 755 -101 1111 -4 191 52 399 141
580 249 110 65 164 80 224 64 59 -16 93 -43 127 -102 36 -63 39 -130 10 -194
-23 -52 -103 -107 -290 -199 -634 -314 -1307 -379 -1930 -187 -271 83 -492
196 -730 374 -460 344 -793 882 -899 1454 -90 485 -56 973 98 1404 304 852
1061 1453 1971 1566 150 18 513 13 660 -10z m2294 -47 c58 -18 120 -82 134
-140 9 -34 12 -311 12 -1017 l0 -971 1390 0 1390 0 0 989 c0 674 3 999 11
1018 15 40 67 92 114 114 112 52 263 -14 294 -128 8 -29 10 -659 9 -2264 l-3
-2224 -22 -40 c-42 -79 -103 -115 -193 -115 -90 0 -152 37 -191 112 -18 36
-19 75 -19 1083 l0 1045 -1390 0 -1390 0 0 -1023 c0 -1145 4 -1081 -71 -1156
-50 -50 -93 -64 -174 -59 -81 5 -133 38 -166 105 l-24 48 0 2240 0 2240 28 47
c54 93 151 128 261 96z"/>
</g>
</svg>
